<?xml version="1.0" encoding="utf-8"?>
<!-- Generator: Adobe Illustrator 24.0.0, SVG Export Plug-In . SVG Version: 6.00 Build 0)  -->
<svg version="1.1" id="图层_1" xmlns="http://www.w3.org/2000/svg" xmlns:xlink="http://www.w3.org/1999/xlink" x="0px" y="0px"
	 viewBox="0 0 841.9 595.3" style="enable-background:new 0 0 841.9 595.3;" xml:space="preserve">
<style type="text/css">
	.st0{fill:#585858;stroke:#585858;stroke-width:50;stroke-miterlimit:10;}
</style>
<path class="st0" d="M712.8,389.6C708.6,345,695.4,303,678.5,262c-4.3,3.2-8.8,6.3-13.5,9.1c6.2,17.8,12.9,34.8,17.4,52.3
	c5.8,22.6,11.2,45.6,13.4,68.8c4.2,43.9-15.4,76.6-52.6,99.1c-22.4,13.5-46.9,20.4-72.8,22.5c-1.7,0.1-3.5,0-6,0V343.4h-7.9
	c-86,0-172,0-258,0c-9.1,0-9.1,0-9.1,9.3c0,51.5,0,103.1,0,154.6c0,1.9,0,3.9,0,7.8c-13-2.3-25.3-3.9-37.2-6.8
	c-23.8-5.8-45.4-16.3-63.4-33.2c-27.5-25.7-35.6-58.1-30.4-94.2c9.4-65.1,33.2-125.1,66.1-181.7c19.3-33.1,42.4-63.4,71.1-89
	c31.5-28.1,67.2-47.6,109.6-52.6c7-0.8,14-0.8,21-0.6c0-0.6,0-1.2,0-1.8c0-5.2,0.4-10.3,0.5-15.4c-51.1-0.1-95.4,19-134.8,51.6
	c-35.9,29.8-63.7,66.4-86.2,106.9c-33.1,59.5-57.8,122-64.8,190.2c-4.3,42,10,77.4,42.9,104.2c32,26.1,69.7,37.3,110.4,37.9
	c44.1,0.6,88.2,0.1,132.3,0.1l0,0c43.7,0,87.3,0.2,131,0c31.2-0.2,60.7-7.4,88.4-22.1C692.5,484.1,717.6,439.7,712.8,389.6z"/>
<path class="st0" d="M487.5,51.1c0.3-0.5,0.6-1,1-1.5c-19.6-6.4-40.3-9.8-62.2-9.6c0,1.9-0.2,3.8-0.2,5.7c0,2.8,0,5.6-0.1,8.4
	c0,1.1,0,2.1-0.1,3.2c7.7-0.2,15.6-0.3,23.4,0.6c11.7,1.4,23,3.9,33.7,7.3C483.5,60.2,485.2,55.4,487.5,51.1z"/>
<path class="st0" d="M712.7,388.7c-5-48.7-19-94.4-38.5-138.2c-1.2,1-2.5,1.9-4,2.7c-0.8,0.4-1.5,0.8-2.3,1.2
	c-2.8,1.6-5.6,2.8-8.6,3.5c17.3,39.1,29.8,80,36.1,123.1c5.2,36.1-2.9,68.5-30.4,94.2c-18,16.9-39.6,27.4-63.4,33.2
	c-12,2.9-24.2,4.5-37.2,6.8c0-3.9,0-5.8,0-7.7c0-51.5,0-103.1,0-154.6c0-9.3,0-9.3-9.1-9.3c-86,0-172,0-258,0h-7.9V514
	c-2.5,0-4.3,0.1-6,0c-25.9-2.1-50.5-9-72.8-22.5c-37.2-22.5-56.8-55.3-52.6-99.1c2.2-23.2,7.6-46.2,13.4-68.8
	c4.5-17.5,11.2-34.5,17.4-52.3c-4.6-2.8-9.1-5.8-13.5-9.1c-16.9,40.9-30.1,83-34.3,127.6c-4.8,50.1,20.4,94.5,66.8,119.2
	c27.6,14.7,57.2,21.9,88.4,22.1c43.7,0.2,87.3,0,131,0l0,0c44.1,0,88.2,0.5,132.3-0.1c40.8-0.6,78.5-11.8,110.5-37.9
	C702.6,466.1,716.9,430.7,712.7,388.7z"/>
<path class="st0" d="M675.9,255.1V255c-0.9-1.9-1.8-3.8-2.6-5.7l-2.9-4.8c-20.2,12.2-43.5,18.7-67.2,18.7
	C531.4,263.1,473,204.7,473,133c0-28.1,8.8-54.8,25.4-77.3l-5.1-3.8c-0.8-0.5-1.7-1-2.5-1.5l0,0c-0.1,0-0.2-0.1-0.4-0.1
	c-0.6-0.2-1.2-0.5-1.9-0.7c-1.2-0.5-2.5-0.9-3.8-1.3c-0.2,0-0.3-0.1-0.5-0.1c-17.8,24.9-27.2,54.1-27.2,84.9
	c0,80.5,65.5,145.9,145.9,145.9c26.3,0,52-7.1,74.4-20.4C676.8,257.5,676.3,256.3,675.9,255.1z"/>
</svg>
