<?xml version="1.0" encoding="utf-8"?>
<!-- Generator: Adobe Illustrator 24.0.0, SVG Export Plug-In . SVG Version: 6.00 Build 0)  -->
<svg version="1.1" id="图层_1" xmlns="http://www.w3.org/2000/svg" xmlns:xlink="http://www.w3.org/1999/xlink" x="0px" y="0px"
	 viewBox="0 0 841.9 595.3" style="enable-background:new 0 0 841.9 595.3;" xml:space="preserve">
<style type="text/css">
	.st0{fill:#585858;}
</style>
<g>
	<path class="st0" d="M712.8,389.6C708.6,345,695.4,303,678.5,262c-4.3,3.2-8.8,6.3-13.5,9.1c6.2,17.8,12.9,34.8,17.4,52.3
		c5.8,22.6,11.2,45.6,13.4,68.8c4.2,43.9-15.4,76.6-52.6,99.1c-22.4,13.5-46.9,20.4-72.8,22.5c-1.7,0.1-3.5,0-6,0V343.4h-7.9
		c-86,0-172,0-258,0c-9.1,0-9.1,0-9.1,9.3c0,51.5,0,103.1,0,154.6c0,1.9,0,3.9,0,7.8c-13-2.3-25.3-3.9-37.2-6.8
		c-23.8-5.8-45.4-16.3-63.4-33.2c-27.5-25.7-35.6-58.1-30.4-94.2c9.4-65.1,33.2-125.1,66.1-181.7c19.3-33.1,42.4-63.4,71.1-89
		c31.5-28.1,67.2-47.6,109.6-52.6c7-0.8,14-0.8,21-0.6c0-0.6,0-1.2,0-1.8c0-5.2,0.4-10.3,0.5-15.4c-51.1-0.1-95.4,19-134.8,51.6
		c-35.9,29.8-63.7,66.4-86.2,106.9c-33.1,59.5-57.8,122-64.8,190.2c-4.3,42,10,77.4,42.9,104.2c32,26.1,69.7,37.3,110.4,37.9
		c44.1,0.6,88.2,0.1,132.3,0.1l0,0c43.7,0,87.3,0.2,131,0c31.2-0.2,60.7-7.4,88.4-22.1C692.5,484.1,717.6,439.7,712.8,389.6z"/>
	<path class="st0" d="M737.7,387.2c-3.9-41.8-15.4-84.6-36.1-134.7l-1.8-4.4c-6.7-6.8-14.4-12.7-23.1-15.9l-13.1,9.8
		c-4.1,3.1-7.8,5.6-11.4,7.7l-17.5,10.4l6.7,19.3c1.6,4.5,3.2,9,4.8,13.4c4.6,12.8,8.9,24.9,12,36.9c6.3,24.4,10.8,44.7,12.7,65
		c3.1,32.7-9.8,56.7-40.6,75.3c-12.4,7.5-25.9,12.8-40.9,16V318.4H298.5c-6.9,0-17.3,0-25.8,8.7c-8.3,8.5-8.3,18.4-8.3,25.6v132.7
		c-2.1-0.4-4.2-0.9-6.3-1.4c-21.2-5.2-38.3-14-52.2-27.2c-19.9-18.6-27.2-41.6-22.7-72.4c8.3-57.6,28.9-114.1,63-172.7
		c19.6-33.6,41.2-60.7,66.1-82.9c30.5-27.2,61.9-42.4,95.8-46.4c5.8-0.7,12.1-0.6,17.4-0.4l25.7,0.7V55.2c0-2.4,0.1-5,0.2-7.8
		c0.1-2.3,0.2-4.7,0.3-7.1l0.5-25.4l-25.4,0C372.8,14.7,322.1,34,275.9,72.2c-35.9,29.8-66,67.1-92.1,114
		c-39,70.2-61.2,135.5-67.8,199.8c-5.2,50.6,12.8,94.2,52,126.1c34.5,28.2,76.9,42.8,125.9,43.5c16.7,0.2,33.4,0.3,50.1,0.3
		c13.9,0,27.7,0,41.3-0.1c13.5,0,27.5-0.1,41.2-0.1c14.6,0,29.1,0,43.6,0c28.6,0,58.3,0.1,87.5,0c35.5-0.2,69.1-8.6,99.9-25
		c27.2-14.3,48.9-34.9,62.9-59.8C734.6,445.8,740.5,416.9,737.7,387.2z M539.4,505.8c-23.2,0.1-46.5,0-69.2,0c-14.6,0-29.1,0-43.7,0
		c-13.8,0-27.9,0-41.4,0.1c-23.2,0.1-47,0.2-70.7,0V368.4h225V505.8z"/>
</g>
<g>
	<path class="st0" d="M487.5,51.1c0.3-0.5,0.6-1,1-1.5c-19.6-6.4-40.3-9.8-62.2-9.6c0,1.9-0.2,3.8-0.2,5.7c0,2.8,0,5.6-0.1,8.4
		c0,1.1,0,2.1-0.1,3.2c7.7-0.2,15.6-0.3,23.4,0.6c11.7,1.4,23,3.9,33.7,7.3C483.5,60.2,485.2,55.4,487.5,51.1z"/>
	<path class="st0" d="M509,55.9c0.3-4.9-0.2-7.4-1.8-12.5c-1.3-4.1-3.1-8.1-5.4-10.2c-2.1-2-3.2-4.3-3.4-6.6l-2.2-0.7
		c-22.7-7.4-46.3-11-70.2-10.8l-24.8,0.2V40c0,0.3,0,1-0.1,1.5c-0.1,1.1-0.1,2.6-0.1,4.2c0,2.7,0,5.2-0.1,7.5l0,0.9c0,0.4,0,0.7,0,1
		L398.5,83l28.1-0.7c6.6-0.2,13.6-0.3,19.8,0.4c9.8,1.2,19.6,3.3,29,6.3l29.4,9.3l3.1-30.7c0.1-1,0.5-2.3,1.1-3.7l1.7-2.1
		C509.5,60.1,508.8,58.1,509,55.9z"/>
</g>
<g>
	<path class="st0" d="M712.7,388.7c-5-48.7-19-94.4-38.5-138.2c-1.2,1-2.5,1.9-4,2.7c-0.8,0.4-1.5,0.8-2.3,1.2
		c-2.8,1.6-5.6,2.8-8.6,3.5c17.3,39.1,29.8,80,36.1,123.1c5.2,36.1-2.9,68.5-30.4,94.2c-18,16.9-39.6,27.4-63.4,33.2
		c-12,2.9-24.2,4.5-37.2,6.8c0-3.9,0-5.8,0-7.7c0-51.5,0-103.1,0-154.6c0-9.3,0-9.3-9.1-9.3c-86,0-172,0-258,0h-7.9V514
		c-2.5,0-4.3,0.1-6,0c-25.9-2.1-50.5-9-72.8-22.5c-37.2-22.5-56.8-55.3-52.6-99.1c2.2-23.2,7.6-46.2,13.4-68.8
		c4.5-17.5,11.2-34.5,17.4-52.3c-4.6-2.8-9.1-5.8-13.5-9.1c-16.9,40.9-30.1,83-34.3,127.6c-4.8,50.1,20.4,94.5,66.8,119.2
		c27.6,14.7,57.2,21.9,88.4,22.1c43.7,0.2,87.3,0,131,0l0,0c44.1,0,88.2,0.5,132.3-0.1c40.8-0.6,78.5-11.8,110.5-37.9
		C702.6,466.1,716.9,430.7,712.7,388.7z"/>
	<path class="st0" d="M737.6,386.2L737.6,386.2c-4.9-48-18.2-95.7-40.5-145.9l-0.2-0.4c-10.3-9.8-22.8-13.9-36.8-10.1l-1.7,1.4
		c-0.3,0.2-0.7,0.4-1,0.5c-0.2,0.1-0.4,0.2-0.6,0.3l-1.2,0.7c-1.1,0.6-1.6,0.8-1.9,0.9l-29.4,6.9l12.2,27.6
		c17,38.5,28.5,77.7,34.2,116.5c4.4,30.7-2.8,53.7-22.8,72.4c-14,13.1-31,22-52.2,27.1c-2.1,0.5-4.2,1-6.3,1.4V352.9
		c0-7.2,0-17.2-8.3-25.6c-8.5-8.7-18.9-8.7-25.8-8.7H264.4v167.5c-15-3.2-28.5-8.5-40.9-16c-30.4-18.4-43.7-43.1-40.7-75.3
		c1.9-20.2,6.5-40.6,12.7-64.9c3.1-12,7.4-24.1,12-36.9c1.6-4.3,3.2-8.8,4.8-13.4l6.6-19.1l-17.3-10.5c-4.2-2.5-7.9-5.1-11.5-7.7
		l-25.8-19.3l-12.3,29.8c-20.7,50-32.1,92.9-36.1,134.8c-2.8,29.6,3.1,58.6,17.3,83.8c13.9,24.8,35.6,45.5,62.6,59.9
		c30.8,16.4,64.4,24.8,100,25c29.2,0.1,58.8,0.1,87.5,0c14.5,0,29.1,0,43.6,0c13.7,0,27.7,0,41.3,0.1c13.6,0,27.4,0.1,41.3,0.1
		c16.7,0,33.4-0.1,50.1-0.3c49-0.7,91.4-15.4,125.9-43.5l0.1-0.1C724.8,480.2,742.6,436.6,737.6,386.2z M539.4,506.2
		c-23.7,0.2-47.5,0.1-70.8,0c-13.6,0-27.6-0.1-41.4-0.1c-14.6,0-29.2,0-43.7,0c-22.7,0-45.9,0.1-69.1,0V368.6h225V506.2z"/>
</g>
<g>
	<path class="st0" d="M675.9,255.1V255c-0.9-1.9-1.8-3.8-2.6-5.7l-2.9-4.8c-20.2,12.2-43.5,18.7-67.2,18.7
		C531.4,263.1,473,204.7,473,133c0-28.1,8.8-54.8,25.4-77.3l-5.1-3.8c-0.8-0.5-1.7-1-2.5-1.5l0,0c-0.1,0-0.2-0.1-0.4-0.1
		c-0.6-0.2-1.2-0.5-1.9-0.7c-1.2-0.5-2.5-0.9-3.8-1.3c-0.2,0-0.3-0.1-0.5-0.1c-17.8,24.9-27.2,54.1-27.2,84.9
		c0,80.5,65.5,145.9,145.9,145.9c26.3,0,52-7.1,74.4-20.4C676.8,257.5,676.3,256.3,675.9,255.1z"/>
	<path class="st0" d="M700.9,249.4l-2.4-5.1c-0.8-1.7-1.6-3.3-2.1-4.7l-0.7-1.7l-4.1-6.7c-12.8-5.6-26.6-5.7-40-0.9
		c-2.4,0.9-5,0.6-7.2-0.5c-13,5.5-26.9,8.4-41.1,8.4C545.2,238.1,498,190.9,498,133c0-22,6.7-42.9,19.3-60.7
		c-0.1-0.7-0.1-1.4-0.1-2.2c0.5-13.3-2.4-27.1-10.9-37.7c-0.8-0.9-1.4-2-1.9-3c-0.1-0.1-0.2-0.1-0.3-0.2l-6.1-3.8h-2.8
		c-1.1-0.4-2.2-0.7-3.1-1l-3.6-1.1h-2c-0.7-0.1-1.5-0.1-2.3-0.1h-12.9l-7.5,10.5C443,62.8,432,97.2,432,133.1
		c0,94.2,76.7,170.9,170.9,170.9c30.7,0,60.8-8.3,87.2-23.9l19.3-11.4l-8.4-18.6V249.4z"/>
	<path class="st0" d="M500.2,27.3C500.2,27.3,500.2,27.3,500.2,27.3C500.2,27.3,500.2,27.3,500.2,27.3z"/>
	<path class="st0" d="M492.3,24.5C492.4,24.5,492.4,24.5,492.3,24.5C492.4,24.5,492.4,24.5,492.3,24.5z"/>
</g>
</svg>
